<?xml version="1.0" standalone="no"?><svg xmlns="http://www.w3.org/2000/svg" viewBox="0 0 1440 320"><path fill="#000000" fill-opacity="1" d="M0,96L30,133.3C60,171,120,245,180,256C240,267,300,213,360,165.3C420,117,480,75,540,90.7C600,107,660,181,720,197.3C780,213,840,171,900,176C960,181,1020,235,1080,218.7C1140,203,1200,117,1260,96C1320,75,1380,117,1410,138.7L1440,160L1440,0L1410,0C1380,0,1320,0,1260,0C1200,0,1140,0,1080,0C1020,0,960,0,900,0C840,0,780,0,720,0C660,0,600,0,540,0C480,0,420,0,360,0C300,0,240,0,180,0C120,0,60,0,30,0L0,0Z"></path></svg>