<?xml version="1.0" standalone="no"?><svg xmlns="http://www.w3.org/2000/svg" viewBox="0 0 1440 320"><path fill="#000000" fill-opacity="1" d="M0,224L40,202.7C80,181,160,139,240,112C320,85,400,75,480,96C560,117,640,171,720,160C800,149,880,75,960,85.3C1040,96,1120,192,1200,213.3C1280,235,1360,181,1400,154.7L1440,128L1440,320L1400,320C1360,320,1280,320,1200,320C1120,320,1040,320,960,320C880,320,800,320,720,320C640,320,560,320,480,320C400,320,320,320,240,320C160,320,80,320,40,320L0,320Z"></path></svg>